<svg width="10" height="17" viewBox="0 0 10 17" fill="none" xmlns="http://www.w3.org/2000/svg">
<g id="307, Banking, Online, Payment, Shopping">
<g id="Group">
<path id="Vector" d="M9.12989 2.51958C9.12989 1.75649 8.5021 1.15576 7.76607 1.15576H1.65594C0.892847 1.15576 0.292114 1.78355 0.292114 2.51958V15.4515C0.292114 16.2146 0.919907 16.8153 1.65594 16.8153H7.76607C8.52916 16.8153 9.12989 16.1876 9.12989 15.4515V9.14927C9.15695 9.12221 9.15695 9.72294 9.12989 2.51958Z" fill="#FFA500"/>
<path id="Vector_2" d="M8.12043 2.90131C8.12043 2.49271 7.79301 2.16528 7.3844 2.16528H6.0747V2.2194C6.0747 2.46565 5.88258 2.65507 5.63904 2.65507H3.78273C3.53648 2.65507 3.34706 2.46294 3.34706 2.2194V2.16528H2.03736C1.62876 2.16528 1.30133 2.49271 1.30133 2.90131V15.0972C1.30133 15.5058 1.62876 15.8333 2.03736 15.8333H7.41146C7.82007 15.8333 8.14749 15.5058 8.14749 15.0972V2.90131H8.12043Z" fill="white"/>
<path id="Vector_3" d="M5.91046 13.9229V14.7969H2.66327V13.9229H3.51025H5.91046Z" fill="white"/>
<path id="Vector_4" d="M5.91046 12.2317V13.076H3.51025H2.66327V12.2317H3.51025H5.91046Z" fill="white"/>
<path id="Vector_5" d="M5.91046 10.5134V11.3848H3.51025H2.66327V10.5134H3.51025H5.91046Z" fill="white"/>
<path id="Vector_6" d="M6.75639 13.0759V13.9229H5.91212H3.5119V13.0759H5.91212H6.75639Z" fill="#FFA500"/>
<path id="Vector_7" d="M6.75639 11.3845V12.2315H5.91212H3.5119V11.3845H5.91212H6.75639Z" fill="#FFA500"/>
<path id="Vector_8" d="M6.75639 9.66626V10.5132H5.91212H3.5119V9.66626H6.75639Z" fill="#FFA500"/>
<path id="Vector_9" d="M7.766 17.005H1.65586C0.808885 17.005 0.0999146 16.3231 0.0999146 15.4491V2.51981C0.0999146 1.67284 0.781825 0.963867 1.65586 0.963867H7.766C8.61297 0.963867 9.32194 1.64578 9.32194 2.51981V3.52915C9.32194 3.61033 9.24076 3.69421 9.15688 3.69421C9.07299 3.69421 8.99452 3.61304 8.99452 3.52915V3.20172V2.51981C8.99452 1.86496 8.4479 1.31835 7.79305 1.31835H1.65586C1.00101 1.31835 0.454399 1.86496 0.454399 2.51981V15.4518C0.454399 16.1066 1.00101 16.6532 1.65586 16.6532H7.766C8.42085 16.6532 8.96746 16.1066 8.96746 15.4518V3.11964C8.96746 3.03846 9.04863 2.95728 9.12981 2.95728C9.21099 2.95728 9.29488 3.03846 9.29488 3.11964V15.4518C9.32194 16.2987 8.61297 17.0077 7.766 17.0077V17.005Z" fill="#23262F" fill-opacity="0.8"/>
<path id="Vector_10" d="M7.3034 16.1146H1.92929C1.43951 16.1146 1.0282 15.706 1.0282 15.2135V3.04734C1.0282 2.55755 1.4368 2.14624 1.92929 2.14624H3.23899C3.32017 2.14624 3.40136 2.22742 3.40136 2.31131V2.36543C3.40136 2.52779 3.53665 2.63873 3.67466 2.63873H5.50121C5.66357 2.63873 5.77451 2.50343 5.77451 2.36543V2.31131C5.77451 2.23013 5.85569 2.14624 5.93958 2.14624H7.24928C7.74177 2.14624 8.15038 2.55485 8.15038 3.04734V3.67513C8.15038 3.75631 8.0692 3.84019 7.98531 3.84019C7.90142 3.84019 7.82295 3.75901 7.82295 3.67513V3.04734C7.82295 2.74697 7.5767 2.50073 7.27634 2.50073H6.15876C6.10464 2.80109 5.8584 3.02028 5.55803 3.02028H3.70172C3.40136 3.02028 3.15511 2.80109 3.10099 2.50073H1.92659C1.62622 2.50073 1.37998 2.74697 1.37998 3.04734V15.2432C1.37998 15.5436 1.62622 15.7899 1.92659 15.7899H7.30069C7.60106 15.7899 7.8473 15.5436 7.8473 15.2432V3.63808C7.8473 3.5569 7.92848 3.47572 8.00966 3.47572C8.09084 3.47572 8.17202 3.5569 8.17202 3.63808V15.2162C8.19908 15.7357 7.79048 16.1173 7.29799 16.1173L7.3034 16.1146Z" fill="#23262F" fill-opacity="0.8"/>
<path id="Vector_11" d="M5.91224 14.9593H2.66505C2.58387 14.9593 2.50269 14.8781 2.50269 14.797V13.95C2.50269 13.8688 2.58387 13.7849 2.66505 13.7849H3.51202C3.5932 13.7849 3.67709 13.8661 3.67709 13.95C3.67709 14.0339 3.59591 14.1123 3.51202 14.1123H2.83011V14.6319H5.72282V13.95C5.72282 13.8688 5.804 13.7849 5.88518 13.7849C5.96636 13.7849 6.04754 13.8661 6.04754 13.95V14.797C6.0746 14.8781 5.99342 14.9593 5.91224 14.9593Z" fill="#23262F" fill-opacity="0.8"/>
<path id="Vector_12" d="M6.75617 14.115H3.50898C3.4278 14.115 3.34662 14.0339 3.34662 13.9527V13.0786C3.34662 12.9975 3.4278 12.9136 3.50898 12.9136C3.59016 12.9136 3.67404 12.9948 3.67404 13.0786V13.7605H6.56675V13.241H5.88484C5.80366 13.241 5.72248 13.1598 5.72248 13.0786C5.72248 12.9975 5.80366 12.9136 5.88484 12.9136H6.73182C6.81299 12.9136 6.89418 12.9948 6.89418 13.0786V13.9256C6.92124 14.0339 6.84006 14.1177 6.75888 14.1177L6.75617 14.115Z" fill="#23262F" fill-opacity="0.8"/>
<path id="Vector_13" d="M5.91224 13.2411H2.66505C2.58387 13.2411 2.50269 13.1599 2.50269 13.0787V12.2317C2.50269 12.1505 2.58387 12.0667 2.66505 12.0667H3.51202C3.5932 12.0667 3.67709 12.1478 3.67709 12.2317C3.67709 12.3156 3.59591 12.3941 3.51202 12.3941H2.83011V12.9136H5.72282V12.2317C5.72282 12.1505 5.804 12.0667 5.88518 12.0667C5.96636 12.0667 6.04754 12.1478 6.04754 12.2317V13.0787C6.0746 13.1599 5.99342 13.2411 5.91224 13.2411Z" fill="#23262F" fill-opacity="0.8"/>
<path id="Vector_14" d="M6.75617 12.3939H3.50898C3.4278 12.3939 3.34662 12.3127 3.34662 12.2315V11.3845C3.34662 11.3033 3.4278 11.2222 3.50898 11.2222C3.59016 11.2222 3.67404 11.3033 3.67404 11.3845V12.0664H6.56675V11.5469H5.88484C5.80366 11.5469 5.72248 11.4657 5.72248 11.3845C5.72248 11.3033 5.80366 11.2222 5.88484 11.2222H6.73182C6.81299 11.2222 6.89418 11.3033 6.89418 11.3845V12.2315C6.92124 12.3127 6.84006 12.3939 6.75888 12.3939H6.75617Z" fill="#23262F" fill-opacity="0.8"/>
<path id="Vector_15" d="M5.91224 11.5496H2.66505C2.58387 11.5496 2.50269 11.4684 2.50269 11.3873V10.5403C2.50269 10.4591 2.58387 10.3779 2.66505 10.3779H3.51202C3.5932 10.3779 3.67709 10.4591 3.67709 10.5403C3.67709 10.6215 3.59591 10.7054 3.51202 10.7054H2.83011V11.2249H5.72282V10.543C5.72282 10.4618 5.804 10.3806 5.88518 10.3806C5.96636 10.3806 6.04754 10.4618 6.04754 10.543V11.39C6.0746 11.4712 5.99342 11.5523 5.91224 11.5523V11.5496Z" fill="#23262F" fill-opacity="0.8"/>
<path id="Vector_16" d="M6.75617 10.7027H3.50898C3.4278 10.7027 3.34662 10.6215 3.34662 10.5377V9.69068C3.34662 9.6095 3.4278 9.52832 3.50898 9.52832H6.75617C6.83735 9.52832 6.91853 9.6095 6.91853 9.69068V10.5377C6.91853 10.6188 6.83735 10.7027 6.75617 10.7027ZM3.67404 10.3482H6.56675V9.82869H3.67404V10.3482Z" fill="#23262F" fill-opacity="0.8"/>
<path id="Vector_17" d="M5.22949 5.4097H2.14737C2.06619 5.4097 1.9823 5.32852 1.9823 5.24463C1.9823 5.16075 2.06348 5.08228 2.14737 5.08228H5.22949C5.31067 5.08228 5.39185 5.16345 5.39185 5.24463C5.39185 5.32581 5.31067 5.4097 5.22949 5.4097Z" fill="#23262F" fill-opacity="0.8"/>
<path id="Vector_18" d="M5.94214 6.28275H2.86001C2.77883 6.28275 2.69495 6.20157 2.69495 6.11768C2.69495 6.0338 2.77613 5.95532 2.86001 5.95532H5.94214C6.02332 5.95532 6.1045 6.0365 6.1045 6.11768C6.1045 6.19886 6.02332 6.28275 5.94214 6.28275Z" fill="#23262F" fill-opacity="0.8"/>
<path id="Vector_19" d="M5.94214 7.15555H2.86001C2.77883 7.15555 2.69495 7.07437 2.69495 6.99048C2.69495 6.9066 2.77613 6.82812 2.86001 6.82812H5.94214C6.02332 6.82812 6.1045 6.9093 6.1045 6.99048C6.1045 7.07166 6.02332 7.15555 5.94214 7.15555Z" fill="#23262F" fill-opacity="0.8"/>
<path id="Vector_20" d="M5.22949 4.7278H2.14737C2.06619 4.7278 1.9823 4.64662 1.9823 4.56544C1.9823 4.48426 2.06348 4.40308 2.14737 4.40308H5.22949C5.31067 4.40308 5.39185 4.48426 5.39185 4.56544C5.39185 4.64662 5.31067 4.7278 5.22949 4.7278Z" fill="#23262F" fill-opacity="0.8"/>
<path id="Vector_21" d="M3.34651 4.04593H2.14505C2.06387 4.04593 1.97998 3.96475 1.97998 3.88357C1.97998 3.80239 2.06116 3.71851 2.14505 3.71851H3.34651C3.42769 3.71851 3.50887 3.79969 3.50887 3.88357C3.50887 3.96746 3.42769 4.04593 3.34651 4.04593Z" fill="#23262F" fill-opacity="0.8"/>
</g>
</g>
</svg>
