<svg width="14" height="17" viewBox="0 0 14 17" fill="none" xmlns="http://www.w3.org/2000/svg">
<path fill-rule="evenodd" clip-rule="evenodd" d="M9.19097 1.90617L9.36882 1.64464L9.54667 1.38688L9.94297 0.807387C9.99226 0.73589 9.97197 0.639933 9.8985 0.592897C9.82601 0.54492 9.72645 0.564677 9.67909 0.63617L9.07401 1.51764L8.89229 1.78293C8.31717 1.56562 7.67633 1.44427 6.99972 1.44427C6.32408 1.44427 5.68227 1.56562 5.10715 1.78293L4.9264 1.51764L4.74758 1.25706L4.32228 0.63617C4.27299 0.564677 4.1744 0.54586 4.10094 0.592897C4.02844 0.639933 4.00814 0.73589 4.05647 0.807387L4.45277 1.38688L4.63062 1.64464L4.80944 1.90617C3.45912 2.51859 2.5457 3.67852 2.5457 5.00591H11.4537C11.4537 3.67852 10.5403 2.51859 9.19097 1.90617ZM4.6135 3.30223C4.6135 3.55905 4.82712 3.76695 5.091 3.76695C5.35487 3.76695 5.56849 3.55905 5.56849 3.30223C5.56849 3.0454 5.35487 2.83844 5.091 2.83844C4.82712 2.83844 4.6135 3.0454 4.6135 3.30223ZM8.43151 3.30223C8.43151 3.55905 8.64513 3.76695 8.909 3.76695C9.17288 3.76695 9.3865 3.55905 9.3865 3.30223C9.3865 3.0454 9.17288 2.83844 8.909 2.83844C8.64513 2.83844 8.43151 3.0454 8.43151 3.30223ZM2.5457 5.6249H2.61433H11.4537V12.4377C11.4537 12.9787 11.0033 13.4189 10.4466 13.4189H9.71872C9.74385 13.5008 9.75835 13.5864 9.75835 13.6767V15.6381C9.75835 16.1508 9.33015 16.5666 8.8024 16.5666C8.27561 16.5666 7.84838 16.1508 7.84838 15.6381V13.6767C7.84838 13.5864 7.86191 13.5008 7.88608 13.4189H6.11336C6.13753 13.5008 6.15203 13.5864 6.15203 13.6767V15.6381C6.15203 16.1508 5.72383 16.5666 5.19704 16.5666C4.67025 16.5666 4.24206 16.1508 4.24206 15.6381V13.6767C4.24206 13.5864 4.25559 13.5008 4.28072 13.4189H3.55385C2.9971 13.4189 2.5457 12.9787 2.5457 12.4377V5.6249ZM0.954985 5.62491C0.42723 5.62491 0 6.04072 0 6.55342V10.528C0 11.0407 0.42723 11.4566 0.954985 11.4566C1.48177 11.4566 1.909 11.0407 1.909 10.528V6.55342C1.909 6.04072 1.48177 5.62491 0.954985 5.62491ZM12.0907 6.55341C12.0907 6.04071 12.518 5.6249 13.0457 5.6249C13.5725 5.6249 13.9997 6.04071 13.9997 6.55341V10.528C13.9997 11.0407 13.5725 11.4565 13.0457 11.4565C12.518 11.4565 12.0907 11.0407 12.0907 10.528V6.55341Z" fill="#A4C639"/>
</svg>
