<svg width="14" height="17" viewBox="0 0 14 17" fill="none" xmlns="http://www.w3.org/2000/svg">
<path fill-rule="evenodd" clip-rule="evenodd" d="M10.0722 0.100098C10.2187 1.09563 9.81352 2.07092 9.27898 2.76095C8.70708 3.50109 7.72134 4.07355 6.76625 4.04367C6.59191 3.09055 7.03831 2.10851 7.58148 1.44835C8.17733 0.719775 9.19851 0.160813 10.0722 0.100098ZM12.9415 14.1127C13.4338 13.3581 13.6178 12.9774 14 12.1255C11.22 11.0683 10.7746 7.11604 13.5258 5.59913C12.6866 4.54674 11.5074 3.9367 10.3942 3.9367C9.59217 3.9367 9.04262 4.14601 8.54303 4.33629C8.12669 4.49486 7.74505 4.64022 7.28088 4.64022C6.77927 4.64022 6.33507 4.48095 5.86995 4.31419C5.35886 4.13094 4.82251 3.93863 4.15697 3.93863C2.90779 3.93863 1.57815 4.7019 0.735141 6.00679C-0.449854 7.84462 -0.247725 11.2996 1.67394 14.2428C2.3608 15.2962 3.27852 16.4796 4.47884 16.4902C4.9769 16.4952 5.30833 16.3465 5.66698 16.1857C6.07749 16.0015 6.52367 15.8014 7.2962 15.7973C8.07329 15.7926 8.51243 15.9952 8.91749 16.182C9.26693 16.3432 9.59101 16.4927 10.0848 16.4873C11.2861 16.4777 12.2546 15.1661 12.9415 14.1127Z" fill="white"/>
</svg>
