<svg width="16" height="17" viewBox="0 0 16 17" fill="none" xmlns="http://www.w3.org/2000/svg">
<path d="M6.79039 1.9261C7.026 2.07013 7.10023 2.37789 6.9562 2.61349C6.85168 2.78446 6.87788 3.00477 7.01957 3.14646L7.08482 3.21171C7.47726 3.60415 7.62197 4.18067 7.46139 4.71192C7.38148 4.97625 7.10243 5.12576 6.8381 5.04586C6.57377 4.96595 6.42426 4.6869 6.50416 4.42257C6.55808 4.24418 6.50949 4.05059 6.37772 3.91882L6.31246 3.85357C5.84411 3.38522 5.75753 2.65702 6.103 2.0919C6.24703 1.8563 6.55479 1.78207 6.79039 1.9261Z" fill="#FFA500"/>
<path d="M11.7924 3.64774C12.0632 3.7019 12.2388 3.96531 12.1846 4.23609L12.0886 4.71605C11.9565 5.37659 11.4806 5.9157 10.8415 6.12872C10.5429 6.22826 10.3205 6.48018 10.2588 6.78883L10.1628 7.26879C10.1087 7.53957 9.84525 7.71518 9.57447 7.66102C9.30369 7.60686 9.12808 7.34345 9.18224 7.07267L9.27823 6.59271C9.41034 5.93217 9.88625 5.39306 10.5253 5.18004C10.8239 5.0805 11.0463 4.82859 11.108 4.51993L11.204 4.03997C11.2582 3.76919 11.5216 3.59359 11.7924 3.64774Z" fill="#FFA500"/>
<path d="M14.272 9.53966C14.0309 9.43422 13.7504 9.47851 13.5535 9.65312C13.014 10.1315 12.2289 10.211 11.6045 9.8505L11.4626 9.76858C11.2234 9.63051 11.1415 9.32471 11.2796 9.08557C11.4176 8.84642 11.7234 8.76448 11.9626 8.90255L12.1045 8.98448C12.3562 9.12979 12.6726 9.09775 12.8901 8.90492C13.3786 8.4717 14.0744 8.36182 14.6726 8.62341L14.867 8.70838C15.12 8.819 15.2354 9.11379 15.1248 9.36681C15.0141 9.61982 14.7194 9.73525 14.4663 9.62462L14.272 9.53966Z" fill="#FFA500"/>
<path d="M4.61808 3.12721C4.75773 2.98756 4.98414 2.98756 5.12378 3.12721C5.26343 3.26685 5.26343 3.49326 5.12378 3.63291C4.98414 3.77256 4.75773 3.77256 4.61808 3.63291C4.47844 3.49326 4.47844 3.26685 4.61808 3.12721Z" fill="#FFA500"/>
<path d="M8.61011 5.27141C8.47047 5.13177 8.24405 5.13177 8.10441 5.27141C7.96476 5.41106 7.96476 5.63747 8.10441 5.77712C8.24405 5.91676 8.47047 5.91676 8.61011 5.77712C8.74976 5.63747 8.74976 5.41106 8.61011 5.27141Z" fill="#FFA500"/>
<path d="M11.4377 7.27141C11.5774 7.13177 11.8038 7.13177 11.9434 7.27141C12.0831 7.41106 12.0831 7.63747 11.9434 7.77712C11.8038 7.91676 11.5774 7.91676 11.4377 7.77712C11.2981 7.63747 11.2981 7.41106 11.4377 7.27141Z" fill="#FFA500"/>
<path d="M13.2107 10.7089C13.0711 10.5693 12.8446 10.5693 12.705 10.7089C12.5653 10.8486 12.5653 11.075 12.705 11.2146C12.8446 11.3543 13.0711 11.3543 13.2107 11.2146C13.3503 11.075 13.3503 10.8486 13.2107 10.7089Z" fill="#FFA500"/>
<path d="M4.98068 13.9943C3.47298 14.4914 2.6786 14.6994 2.23917 14.2599C1.75258 13.7734 2.05985 12.8516 2.67439 11.0079L3.80072 7.62895C4.22206 6.36493 4.46958 5.62235 4.88262 5.32113L4.87915 5.33833C4.87434 5.36227 4.86738 5.39726 4.85862 5.44226C4.84111 5.53225 4.81637 5.66239 4.78715 5.8245C4.72876 6.14852 4.6523 6.60132 4.57991 7.11724C4.43648 8.13939 4.30364 9.44538 4.37208 10.489C4.41349 11.1205 4.54487 11.9039 4.66212 12.516C4.7213 12.8249 4.77795 13.0957 4.81983 13.2893C4.84078 13.3862 4.85807 13.4639 4.87018 13.5177L4.88427 13.5797L4.98068 13.9943Z" fill="#FFA500"/>
<path d="M8.69226 12.7577L8.87016 12.6984C10.4022 12.1877 11.1682 11.9324 11.3108 11.3282C11.4535 10.724 10.8825 10.1531 9.7406 9.01118L8.61442 7.885L8.61128 7.89486C8.59821 7.93607 8.57928 7.99677 8.55645 8.07304C8.51072 8.22581 8.44971 8.43975 8.38881 8.68364C8.26414 9.18284 8.15098 9.76493 8.15098 10.2036C8.15098 10.6422 8.26414 11.2243 8.38881 11.7235C8.44971 11.9674 8.51072 12.1813 8.55645 12.3341C8.57928 12.4103 8.59821 12.471 8.61128 12.5122C8.61782 12.5328 8.62289 12.5485 8.62624 12.5588L8.62995 12.5702L8.63079 12.5727L8.69226 12.7577Z" fill="#FFA500"/>
<path d="M5.86612 5.50292L5.8999 5.3394C6.30839 5.57898 6.79219 6.06277 7.48794 6.75852L7.82316 7.09374L7.68134 7.52045L7.67526 7.539C7.67121 7.55146 7.66542 7.56941 7.65813 7.59237C7.64357 7.63826 7.62301 7.70423 7.59845 7.78626C7.54941 7.95009 7.48406 8.17923 7.4186 8.44135C7.29054 8.95414 7.15098 9.63568 7.15098 10.2036C7.15098 10.7714 7.29054 11.453 7.4186 11.9658C7.48406 12.2279 7.54941 12.457 7.59845 12.6208C7.62301 12.7029 7.64357 12.7688 7.65813 12.8147C7.66542 12.8377 7.67121 12.8556 7.67526 12.8681L7.74358 13.0739L5.93362 13.6772L5.86241 13.3712L5.85901 13.3564L5.84574 13.2979C5.83419 13.2467 5.81752 13.1717 5.79723 13.0779C5.75661 12.8901 5.70163 12.6273 5.64426 12.3279C5.52843 11.7231 5.40709 10.9902 5.36993 10.4236C5.30857 9.48768 5.42845 8.26643 5.5702 7.2562C5.6404 6.75594 5.71464 6.31627 5.7713 6.00186C5.79961 5.84476 5.82349 5.7192 5.8402 5.6333C5.84856 5.59035 5.85513 5.55734 5.85956 5.53527L5.86457 5.51051L5.86579 5.50453L5.86612 5.50292Z" fill="#FFA500"/>
<path d="M9.9687 1.97363C10.0698 1.96022 10.2541 1.95378 10.4007 2.10029C10.5472 2.2468 10.5407 2.43112 10.5273 2.53224C10.5146 2.6278 10.4821 2.74229 10.451 2.85136L10.4271 2.93536L10.4703 3.00367C10.5286 3.09605 10.5913 3.19529 10.6296 3.28357C10.6729 3.38315 10.7222 3.55123 10.6294 3.72782C10.5383 3.90104 10.3753 3.95805 10.2716 3.98163C10.1773 4.00308 10.0592 4.01225 9.94701 4.02097L9.86201 4.0276L9.85493 4.02816L9.7937 4.10254C9.72058 4.19141 9.64471 4.28363 9.57321 4.34903C9.49746 4.41832 9.35514 4.52514 9.15698 4.498C8.95205 4.46995 8.8458 4.32155 8.79437 4.22881C8.7478 4.14485 8.70702 4.03431 8.66902 3.93131L8.64221 3.85873L8.56963 3.83192C8.46662 3.79392 8.3561 3.75314 8.27213 3.70657C8.17939 3.65514 8.031 3.54889 8.00294 3.34396C7.9758 3.1458 8.08262 3.00348 8.15191 2.92774C8.21731 2.85623 8.30954 2.78036 8.3984 2.70724L8.47278 2.64601L8.47334 2.63893L8.47997 2.55392C8.48869 2.4417 8.49786 2.32369 8.51931 2.22932C8.54289 2.12561 8.5999 1.96263 8.77312 1.87159C8.94971 1.77877 9.11779 1.82801 9.21737 1.87129C9.30566 1.90967 9.40491 1.97235 9.4973 2.0307L9.56558 2.0738L9.64957 2.04992C9.75864 2.01889 9.87314 1.9863 9.9687 1.97363Z" fill="#FFA500"/>
<path d="M14.7595 7.49487C15.0709 7.18344 15.186 6.76421 15.0154 6.39494C14.886 6.11483 14.6242 5.93264 14.3027 5.86402C14.234 5.54249 14.0519 5.28064 13.7717 5.15125C13.4025 4.98068 12.9832 5.09579 12.6718 5.40722C12.4912 5.5878 12.4094 5.82981 12.3711 6.04532C12.3319 6.26579 12.3311 6.49883 12.3442 6.703C12.3574 6.90916 12.3856 7.09821 12.4101 7.23489C12.4225 7.30359 12.4341 7.35994 12.4427 7.39966C12.447 7.41953 12.4506 7.4353 12.4532 7.44643C12.4829 7.56648 12.5812 7.67921 12.7012 7.70892L12.702 7.70911L12.7202 7.71346C12.7314 7.71606 12.7471 7.71965 12.767 7.72398C12.8067 7.73262 12.8631 7.74421 12.9318 7.75655C13.0685 7.78111 13.2575 7.80928 13.4637 7.82248C13.6678 7.83555 13.9009 7.83479 14.1214 7.79558C14.3369 7.75725 14.5789 7.67545 14.7595 7.49487Z" fill="#FFA500"/>
</svg>
