<svg xmlns="http://www.w3.org/2000/svg" width="22" height="16" viewBox="0 0 22 16" fill="none">
  <path d="M6.16309 12.4884H0.804443V11.29C0.804443 9.78337 2.0508 8.58495 3.57108 8.65343C4.85168 8.68767 5.88917 9.61217 6.12885 10.8448C6.19733 11.153 6.16309 11.3927 6.16309 12.4884Z" fill="white"/>
  <path d="M3.56824 7.76322C3.56824 5.40062 5.50625 3.48315 7.88939 3.48315V12.4884H6.16025C6.16025 11.3585 6.19449 11.1188 6.09177 10.7421C5.84866 9.57797 4.81117 8.65348 3.56824 8.61924V7.76322Z" fill="white"/>
  <path d="M5.74637 12.4883V12.6937C5.74637 13.9949 4.67464 15.0563 3.3598 15.0563C2.04497 15.0563 0.973236 13.9949 0.973236 12.6937V12.4883H2.70238C2.70238 12.8307 2.97973 13.1389 3.3598 13.1389C3.70563 13.1389 4.01722 12.8649 4.01722 12.4883H5.74637Z" fill="#FFA500"/>
  <path d="M18.9911 12.4883V12.6937C18.9911 13.9949 17.9193 15.0563 16.6045 15.0563C15.2897 15.0563 14.2179 13.9949 14.2179 12.6937V12.4883H15.9471V12.6937C15.9471 13.0361 16.2244 13.3443 16.6045 13.3443C16.9846 13.3443 17.2619 13.0704 17.2619 12.6937V12.4883H18.9911Z" fill="#FFA500"/>
  <path d="M7.30439 0.949219C8.00974 0.949219 8.58498 1.51761 8.58498 2.21612C8.58498 2.91463 8.01316 3.48302 7.30439 3.48302C6.59561 3.48302 6.02379 2.91463 6.02379 2.21612C6.02379 1.51761 6.59561 0.949219 7.30439 0.949219Z" fill="#FFA500"/>
  <path d="M16.122 4.95549C15.985 5.09246 15.7762 5.19518 15.5331 5.19518H13.3554C13.2869 5.19518 13.2184 5.19518 13.1465 5.16094C12.7664 5.05822 12.4891 4.71581 12.4891 4.33917C12.4891 4.09948 12.5918 3.89404 12.7322 3.72284C12.9034 3.55163 13.1123 3.48315 13.3554 3.48315H15.5331C16.0159 3.48315 16.3959 3.8598 16.3959 4.33917C16.3617 4.57885 16.2932 4.78429 16.1186 4.95549H16.122Z" fill="#FFA500"/>
  <path d="M17.2617 11.8034V12.454H12.9028V10.7419H16.1523C16.7754 10.7762 17.2582 11.2213 17.2582 11.8034H17.2617Z" fill="#FFA500"/>
  <path d="M16.1201 4.95532C18.7498 5.64013 20.7186 8.00274 20.7186 10.8447V12.454H17.2603V11.8034C17.2603 11.2213 16.7775 10.742 16.1886 10.742H12.9392V5.84558C12.9392 5.60589 13.0076 5.36621 13.1823 5.19501C13.2508 5.19501 13.3192 5.22925 13.3911 5.22925H15.5688C15.74 5.19501 15.9489 5.12653 16.1235 4.95532H16.1201Z" fill="#FFA500"/>
  <path d="M7.88962 12.8993H6.16047C5.91736 12.8993 5.71192 12.6939 5.71192 12.4542C5.71192 12.2145 5.92079 12.0091 6.16047 12.0091H7.47531V3.92828C5.53729 4.13372 4.01701 5.77727 4.01701 7.76323V8.24259C4.74291 8.34531 5.40033 8.72196 5.88312 9.30405C5.9516 9.40677 5.98584 9.44101 6.02008 9.47525C6.15705 9.6807 6.12281 9.92038 5.91736 10.0573C5.70849 10.1943 5.46881 10.1601 5.32843 9.95462L5.29418 9.92038C4.84563 9.37253 4.22246 9.06436 3.59928 9.06436C3.35617 9.06436 3.18497 8.85892 3.18497 8.65348V7.79746C3.18497 5.19518 5.32842 3.07227 7.92386 3.07227C8.16697 3.07227 8.37241 3.27771 8.37241 3.51739V12.5227C8.33817 12.7281 8.1293 12.8993 7.88962 12.8993Z" fill="#23262F" fill-opacity="0.8"/>
  <path d="M12.9399 12.899H7.88941C7.6463 12.899 7.44086 12.6936 7.44086 12.4539C7.44086 12.2142 7.64972 12.0088 7.88941 12.0088H12.9022C13.1453 12.0088 13.3508 12.2142 13.3508 12.4539C13.3508 12.7278 13.1419 12.899 12.9365 12.899H12.9399Z" fill="#23262F" fill-opacity="0.8"/>
  <path d="M3.36151 15.4671C1.80699 15.4671 0.560638 14.2345 0.560638 12.6937C0.560638 12.454 0.769506 12.2485 1.00919 12.2485C1.24887 12.2485 1.45774 12.454 1.45774 12.6937C1.45774 13.7551 2.3206 14.6111 3.39576 14.6111C4.47091 14.6111 5.33377 13.7551 5.33377 12.6937C5.33377 12.454 5.54264 12.2485 5.78232 12.2485C6.02201 12.2485 6.23087 12.454 6.23087 12.6937C6.16239 14.2345 4.91604 15.4671 3.36151 15.4671Z" fill="#23262F" fill-opacity="0.8"/>
  <path d="M3.35887 13.5498C2.76993 13.5498 2.28714 13.0704 2.28714 12.4883C2.28714 12.2487 2.49601 12.0432 2.73569 12.0432C2.97537 12.0432 3.18424 12.2487 3.18424 12.4883C3.18424 12.5911 3.28696 12.6938 3.39311 12.6938C3.49925 12.6938 3.60198 12.5911 3.60198 12.4883C3.60198 12.2487 3.81084 12.0432 4.05053 12.0432C4.29021 12.0432 4.49908 12.2487 4.49908 12.4883C4.4306 13.0704 3.94438 13.5498 3.35887 13.5498Z" fill="#23262F" fill-opacity="0.8"/>
  <path d="M16.6039 15.4671C15.0494 15.4671 13.803 14.2345 13.803 12.6937C13.803 12.454 14.0119 12.2485 14.2516 12.2485C14.4912 12.2485 14.7001 12.454 14.7001 12.6937C14.7001 13.7551 15.563 14.6111 16.6381 14.6111C17.7133 14.6111 18.5761 13.7551 18.5761 12.6937C18.5761 12.454 18.785 12.2485 19.0247 12.2485C19.2644 12.2485 19.4732 12.454 19.4732 12.6937C19.4048 14.2345 18.1584 15.4671 16.6039 15.4671Z" fill="#23262F" fill-opacity="0.8"/>
  <path d="M16.6047 13.7551C16.0158 13.7551 15.533 13.2758 15.533 12.6937C15.533 12.454 15.7419 12.2485 15.9816 12.2485C16.2213 12.2485 16.4301 12.454 16.4301 12.6937C16.4301 12.7964 16.5328 12.8991 16.639 12.8991C16.7451 12.8991 16.8479 12.7964 16.8479 12.6937C16.8479 12.454 17.0567 12.2485 17.2964 12.2485C17.5361 12.2485 17.745 12.454 17.745 12.6937C17.6765 13.2758 17.1903 13.7551 16.6047 13.7551Z" fill="#23262F" fill-opacity="0.8"/>
  <path d="M17.26 12.8992C17.0169 12.8992 16.8114 12.6937 16.8114 12.454V11.8035C16.8114 11.4611 16.5341 11.1871 16.1882 11.1871H12.9388C12.6957 11.1871 12.4902 10.9817 12.4902 10.742C12.4902 10.5023 12.6991 10.2969 12.9388 10.2969H16.1882C17.0168 10.2969 17.6743 10.9474 17.6743 11.7692V12.4198C17.6743 12.728 17.4654 12.8992 17.26 12.8992Z" fill="#23262F" fill-opacity="0.8"/>
  <path d="M20.2703 9.06432H16.3977C16.1546 9.06432 15.9491 8.85888 15.9491 8.6192C15.9491 8.37952 16.158 8.17407 16.3977 8.17407H20.3045C20.5476 8.17407 20.7531 8.37952 20.7531 8.6192C20.7531 8.85888 20.51 9.06432 20.2703 9.06432Z" fill="#23262F" fill-opacity="0.8"/>
  <path d="M19.4087 7.76306H17.231C16.9879 7.76306 16.7825 7.55761 16.7825 7.31793C16.7825 7.07825 16.9913 6.8728 17.231 6.8728H19.4087C19.6518 6.8728 19.8573 7.07825 19.8573 7.31793C19.8573 7.55761 19.6484 7.76306 19.4087 7.76306Z" fill="#23262F" fill-opacity="0.8"/>
  <path d="M20.7183 12.8992H12.9388C12.6957 12.8992 12.4902 12.6937 12.4902 12.4541V5.84563C12.4902 5.50323 12.593 5.19506 12.8018 4.92114C12.8018 4.8869 12.8361 4.8869 12.8361 4.85266C13.0073 4.68146 13.2846 4.71569 13.4593 4.8869C13.5962 5.0581 13.5962 5.29779 13.4593 5.43475C13.3908 5.53747 13.3223 5.67443 13.3223 5.81139V12.0432H20.2389V10.8448C20.2389 8.27671 18.4755 6.01684 15.9862 5.36627C15.7773 5.33203 15.6404 5.16082 15.6404 4.95538C15.6404 4.71569 15.8492 4.51025 16.0547 4.51025H16.1574C19.1329 5.29779 21.136 7.90006 21.136 10.879V12.4883C21.136 12.728 20.9271 12.8992 20.7217 12.8992H20.7183Z" fill="#23262F" fill-opacity="0.8"/>
  <path d="M7.3052 3.92821C6.33619 3.92821 5.57605 3.17491 5.57605 2.21618C5.57605 1.25744 6.33619 0.50415 7.3052 0.50415C8.27421 0.50415 9.03435 1.25744 9.03435 2.21618C9.03435 3.17491 8.27421 3.92821 7.3052 3.92821ZM7.3052 1.36016C6.82241 1.36016 6.44234 1.73681 6.44234 2.21618C6.44234 2.69555 6.82241 3.07219 7.3052 3.07219C7.78799 3.07219 8.16806 2.69555 8.16806 2.21618C8.16806 1.73681 7.78799 1.36016 7.3052 1.36016Z" fill="#23262F" fill-opacity="0.8"/>
  <path d="M10.1742 2.62707H8.61963C8.37653 2.62707 8.17108 2.42163 8.17108 2.18194C8.17108 1.94226 8.37995 1.73682 8.61963 1.73682H10.1742C10.4173 1.73682 10.6227 1.94226 10.6227 2.18194C10.6227 2.42163 10.4138 2.62707 10.1742 2.62707Z" fill="#23262F" fill-opacity="0.8"/>
  <path d="M9.47968 11.1871H8.16484C7.92174 11.1871 7.71629 10.9817 7.71629 10.742C7.71629 10.5023 7.92516 10.2969 8.16484 10.2969H9.47968C9.72279 10.2969 9.92823 10.5023 9.92823 10.742C9.92823 10.9817 9.68512 11.1871 9.47968 11.1871Z" fill="#23262F" fill-opacity="0.8"/>
  <path d="M9.89399 9.47522H8.16484C7.92174 9.47522 7.71629 9.26977 7.71629 9.03009C7.71629 8.79041 7.92516 8.58496 8.16484 8.58496H9.89399C10.1371 8.58496 10.3425 8.79041 10.3425 9.03009C10.3425 9.26977 10.1337 9.47522 9.89399 9.47522Z" fill="#23262F" fill-opacity="0.8"/>
  <path d="M15.5315 5.64031H13.3538C13.2511 5.64031 13.145 5.64031 13.0422 5.60607C12.4533 5.46911 12.039 4.9555 12.039 4.37341C12.039 4.031 12.176 3.72284 12.4191 3.44891C12.6622 3.20923 13.008 3.07227 13.3538 3.07227H15.5315C16.2574 3.07227 16.8464 3.65436 16.8464 4.37341C16.8464 4.71581 16.7094 5.02398 16.4663 5.2979L16.4321 5.33214C16.1547 5.50335 15.8431 5.64031 15.5315 5.64031ZM13.3538 3.92828C13.2511 3.92828 13.145 3.96252 13.0422 4.06524C12.9738 4.13373 12.9053 4.23645 12.9053 4.37341C12.9053 4.57885 13.0422 4.75005 13.2511 4.78429H15.535C15.6377 4.78429 15.7438 4.75006 15.8466 4.68158C15.915 4.61309 15.9835 4.47613 15.9835 4.37341C15.9835 4.13372 15.7746 3.92828 15.5692 3.92828H13.3573H13.3538Z" fill="#23262F" fill-opacity="0.8"/>
  <path d="M19.8564 15.4674H3.35926C3.11615 15.4674 2.91071 15.262 2.91071 15.0223C2.91071 14.7826 3.11957 14.5771 3.35926 14.5771H19.8529C20.096 14.5771 20.3015 14.7826 20.3015 15.0223C20.2672 15.2962 20.0584 15.4674 19.8529 15.4674H19.8564Z" fill="#23262F" fill-opacity="0.8"/>
  <path d="M6.43713 6.05114H4.25943C4.01633 6.05114 3.81088 5.8457 3.81088 5.60602C3.81088 5.36633 4.01975 5.16089 4.25943 5.16089H6.43713C6.68024 5.16089 6.88568 5.36633 6.88568 5.60602C6.88568 5.8457 6.67682 6.05114 6.43713 6.05114Z" fill="#23262F" fill-opacity="0.8"/>
  <path d="M5.15932 7.35217H3.84449C3.60138 7.35217 3.39594 7.14673 3.39594 6.90704C3.39594 6.66736 3.6048 6.46191 3.84449 6.46191H5.15932C5.40243 6.46191 5.60787 6.66736 5.60787 6.90704C5.60787 7.14673 5.36477 7.35217 5.15932 7.35217Z" fill="#23262F" fill-opacity="0.8"/>
  <path d="M6.16013 12.8992H0.835728C0.59262 12.8992 0.387177 12.6937 0.387177 12.454V11.2556C0.387177 9.50935 1.83898 8.13973 3.60236 8.17397C4.98568 8.20821 6.16013 9.16694 6.50596 10.4681C6.5402 10.5708 6.57444 10.7078 6.57444 10.7762C6.64293 11.1871 6.60868 11.3583 6.60868 12.4883C6.60868 12.728 6.39982 12.8992 6.16013 12.8992ZM1.25004 12.0432H5.74582C5.74582 11.3241 5.78006 11.1529 5.71158 10.8105C5.50271 9.81751 4.60561 9.02998 3.49964 9.02998C2.25329 9.02998 1.25346 10.023 1.25346 11.2556V12.0432H1.25004Z" fill="#23262F" fill-opacity="0.8"/>
</svg>