<svg xmlns="http://www.w3.org/2000/svg" width="17" height="14" viewBox="0 0 17 14" fill="none">
  <path d="M14.4406 0.535889H1.80545C1.11616 0.535889 0.572144 1.08276 0.572144 1.77206V10.1005C0.572144 10.7898 1.11616 11.3339 1.80545 11.3339H14.4406C15.1299 11.3339 15.6768 10.7898 15.6768 10.1005V1.77206C15.6768 1.08276 15.1014 0.535889 14.4406 0.535889Z" fill="#FFA500"/>
  <path d="M1.83331 10.0405V9.1518V3.95362V3.23584V2.51807V1.80029H4.90664H11.7113H14.4115V2.51807V3.23584V3.95362V9.1518V10.0405H1.83331Z" fill="white"/>
  <path d="M6.68536 11.3052H9.67324V11.4191C9.67324 11.7638 9.41406 12.0229 9.09789 12.0229H7.14394C6.82777 12.0229 6.56859 11.7638 6.56859 11.4191V11.3052H6.68251H6.68536Z" fill="white"/>
  <path d="M14.4395 11.3052H16.0203C16.0203 12.4815 15.1003 13.4585 13.9524 13.4585H2.29426C1.7189 13.4585 1.20335 13.2278 0.830221 12.8262C0.457092 12.4246 0.226379 11.9062 0.226379 11.3052H6.57243V11.4191C6.57243 11.7638 6.83162 12.0229 7.14778 12.0229H9.10174C9.4179 12.0229 9.67709 11.7638 9.67709 11.4191V11.3052H14.4452H14.4395Z" fill="#FFA500"/>
  <path d="M9.93106 5.01611V7.34319L9.21328 6.62541L8.49551 7.34319V5.01611V4.29834H9.93106V5.01611Z" fill="white"/>
  <path d="M13.9522 13.6324H2.29402C1.69018 13.6324 1.11768 13.4017 0.716063 12.9431C0.285968 12.513 0.0552521 11.9092 0.0552521 11.3053C0.0552521 11.2199 0.140697 11.1344 0.228995 11.1344H1.80696C1.89241 11.1344 1.98072 11.2199 1.98072 11.3053C1.98072 11.3908 1.92374 11.4791 1.80696 11.4791H0.399887C0.42837 11.9377 0.630613 12.3678 0.946776 12.6839C1.29142 13.0571 1.77847 13.2593 2.26838 13.2593H13.955C14.932 13.2593 15.7352 12.4561 15.8207 11.4506H14.4421C14.3566 11.4506 14.2712 11.3652 14.2712 11.2797C14.2712 11.1943 14.3566 11.106 14.4421 11.106H16.0229C16.1084 11.106 16.1938 11.1914 16.1938 11.2797C16.1938 12.6013 15.1883 13.6353 13.955 13.6353L13.9522 13.6324Z" fill="#23262F" fill-opacity="0.8"/>
  <path d="M9.09885 12.1968H7.14489C6.74328 12.1968 6.39864 11.8521 6.39864 11.422V11.3081C6.39864 11.2226 6.4841 11.1372 6.56955 11.1372C6.65499 11.1372 6.74329 11.2226 6.74329 11.3081V11.422C6.74329 11.6528 6.91418 11.8521 7.14489 11.8521H9.09885C9.32956 11.8521 9.50045 11.6499 9.50045 11.422V11.3081C9.50045 11.2226 9.58591 11.1372 9.67136 11.1372C9.75681 11.1372 9.84511 11.2226 9.84511 11.3081V11.422C9.84511 11.8521 9.50046 12.1968 9.09885 12.1968Z" fill="#23262F" fill-opacity="0.8"/>
  <path d="M14.4109 10.2144H11.5398C11.4544 10.2144 11.366 10.1289 11.366 10.0406C11.366 9.95234 11.4515 9.86973 11.5398 9.86973H14.24V1.97135H2.03496V9.86973H4.56143C4.64688 9.86973 4.73517 9.95519 4.73517 10.0406C4.73517 10.1261 4.64973 10.2144 4.56143 10.2144H1.86121C1.77577 10.2144 1.69032 10.1289 1.69032 10.0406V1.79761C1.69032 1.71216 1.77577 1.62671 1.86121 1.62671H14.4394C14.5248 1.62671 14.6131 1.71216 14.6131 1.79761V10.0406C14.5846 10.1261 14.4992 10.2144 14.4109 10.2144Z" fill="#23262F" fill-opacity="0.8"/>
  <path d="M14.4397 11.479H11.5401C11.4547 11.479 11.3664 11.3936 11.3664 11.3053C11.3664 11.217 11.4518 11.1344 11.5401 11.1344H14.4397C15.0151 11.1344 15.4737 10.6758 15.4737 10.1005V1.77198C15.4737 1.19662 15.0151 0.738039 14.4397 0.738039H1.80457C1.22922 0.738039 0.770653 1.19662 0.770653 1.77198V10.1005C0.770653 10.6758 1.22922 11.1344 1.80457 11.1344H4.53327C4.61872 11.1344 4.70418 11.2198 4.70418 11.3053C4.70418 11.3907 4.61872 11.479 4.53327 11.479H1.80457C1.02983 11.479 0.397507 10.8467 0.397507 10.072V1.74349C0.397507 0.968753 1.02983 0.336426 1.80457 0.336426H14.4397C15.2145 0.336426 15.8468 0.968753 15.8468 1.74349V10.072C15.8468 10.8467 15.2145 11.479 14.4397 11.479Z" fill="#23262F" fill-opacity="0.8"/>
  <path d="M10.4505 10.7611H6.68791C6.60246 10.7611 6.51701 10.6757 6.51701 10.5874C6.51701 10.4991 6.60246 10.4165 6.68791 10.4165H10.4505C10.536 10.4165 10.6214 10.5019 10.6214 10.5874C10.6214 10.6728 10.5645 10.7611 10.4505 10.7611Z" fill="#23262F" fill-opacity="0.8"/>
  <path d="M10.8229 10.0405H10.1051C10.0196 10.0405 9.93134 9.95508 9.93134 9.86963C9.93134 9.78418 10.0168 9.69873 10.1051 9.69873H10.8229C10.9083 9.69873 10.9938 9.78418 10.9938 9.86963C10.9938 9.95508 10.9083 10.0405 10.8229 10.0405Z" fill="#23262F" fill-opacity="0.8"/>
  <path d="M10.8229 9.4965H10.1051C10.0196 9.4965 9.93134 9.41105 9.93134 9.3256C9.93134 9.24015 10.0168 9.15186 10.1051 9.15186H10.8229C10.9083 9.15186 10.9938 9.2373 10.9938 9.3256C10.9938 9.4139 10.9083 9.4965 10.8229 9.4965Z" fill="#23262F" fill-opacity="0.8"/>
  <path d="M3.98526 2.69206H1.83194C1.74649 2.69206 1.66103 2.60661 1.66103 2.51831C1.66103 2.43002 1.74649 2.34741 1.83194 2.34741H3.98526C4.07071 2.34741 4.159 2.43286 4.159 2.51831C4.18749 2.60376 4.10204 2.69206 3.98526 2.69206Z" fill="#23262F" fill-opacity="0.8"/>
  <path d="M3.64061 3.40984H1.83194C1.74649 3.40984 1.66103 3.32438 1.66103 3.23609C1.66103 3.14779 1.74649 3.06519 1.83194 3.06519H3.64061C3.72606 3.06519 3.81435 3.15064 3.81435 3.23609C3.81435 3.32154 3.72891 3.40984 3.64061 3.40984Z" fill="#23262F" fill-opacity="0.8"/>
  <path d="M3.26748 4.1276H1.83194C1.74649 4.1276 1.66103 4.04216 1.66103 3.95386C1.66103 3.86556 1.74649 3.78296 1.83194 3.78296H3.26748C3.35293 3.78296 3.44122 3.86841 3.44122 3.95386C3.46971 4.03931 3.38426 4.1276 3.26748 4.1276Z" fill="#23262F" fill-opacity="0.8"/>
  <path d="M14.4104 2.69206H12.2571C12.1716 2.69206 12.0833 2.60661 12.0833 2.51831C12.0833 2.43002 12.1688 2.34741 12.2571 2.34741H14.4104C14.4958 2.34741 14.5841 2.43286 14.5841 2.51831C14.5841 2.60376 14.4987 2.69206 14.4104 2.69206Z" fill="#23262F" fill-opacity="0.8"/>
  <path d="M14.4103 3.40984H12.6016C12.5162 3.40984 12.4279 3.32438 12.4279 3.23609C12.4279 3.14779 12.5133 3.06519 12.6016 3.06519H14.4103C14.4958 3.06519 14.5841 3.15064 14.5841 3.23609C14.5841 3.32154 14.4986 3.40984 14.4103 3.40984Z" fill="#23262F" fill-opacity="0.8"/>
  <path d="M14.4094 4.1276H12.9739C12.8884 4.1276 12.803 4.04216 12.803 3.95386C12.803 3.86556 12.8884 3.78296 12.9739 3.78296H14.4094C14.4949 3.78296 14.5832 3.86841 14.5832 3.95386C14.5832 4.03931 14.4977 4.1276 14.4094 4.1276Z" fill="#23262F" fill-opacity="0.8"/>
  <path d="M14.4101 9.32585H12.4277C12.3422 9.32585 12.2568 9.2404 12.2568 9.1521C12.2568 9.0638 12.3422 8.9812 12.4277 8.9812H14.4101C14.4956 8.9812 14.5839 9.06665 14.5839 9.1521C14.5839 9.23755 14.4984 9.32585 14.4101 9.32585Z" fill="#23262F" fill-opacity="0.8"/>
  <path d="M3.81435 9.32585H1.83194C1.74649 9.32585 1.66103 9.2404 1.66103 9.1521C1.66103 9.0638 1.74649 8.9812 1.83194 8.9812H3.81435C3.8998 8.9812 3.98526 9.06665 3.98526 9.1521C3.98526 9.23755 3.8998 9.32585 3.81435 9.32585Z" fill="#23262F" fill-opacity="0.8"/>
</svg>