<svg xmlns="http://www.w3.org/2000/svg" width="20" height="18" viewBox="0 0 20 18" fill="none">
  <path d="M17.9306 2.27979H1.88682C1.47146 2.27979 1.11951 2.62857 1.11951 3.04076V16.1358C1.11951 16.548 1.47146 16.8968 1.88682 16.8968H17.9306C18.346 16.8968 18.698 16.548 18.698 16.1358V3.04076C18.698 2.62857 18.346 2.27979 17.9306 2.27979Z" fill="white"/>
  <path d="M18.6989 5.03809H1.08554V6.59173H18.6989V5.03809Z" fill="white"/>
  <path d="M15.3682 9.50891C15.4316 9.57232 15.495 9.69915 15.495 9.79427C15.495 9.88939 15.4633 9.98451 15.3682 10.0796C15.2096 10.2382 14.9528 10.2382 14.7911 10.0796C14.7277 10.0162 14.6643 9.88939 14.6643 9.79427C14.6643 9.69915 14.696 9.60403 14.7911 9.50891C14.8545 9.44549 14.9845 9.38208 15.0796 9.38208C15.2065 9.38208 15.3048 9.41379 15.3682 9.50891Z" fill="#FFA500"/>
  <path d="M13.4152 9.604L11.2052 14.0113H10.0828L11.8457 10.5235H9.95596V9.604H13.4152Z" fill="#FFA500"/>
  <path d="M12.9642 13.4723C13.0276 13.5357 13.091 13.6625 13.091 13.7576C13.091 13.8528 13.0593 13.9479 12.9642 14.043C12.8057 14.2015 12.5488 14.2015 12.3871 14.043C12.3237 13.9796 12.2603 13.8528 12.2603 13.7576C12.2603 13.6625 12.292 13.5674 12.3871 13.4723C12.4506 13.4089 12.5806 13.3455 12.6757 13.3455C12.7708 13.3455 12.9008 13.3772 12.9642 13.4723Z" fill="#FFA500"/>
  <path d="M9.51034 12.3309V13.2186H6.37133C6.37133 13.0284 6.37133 12.8382 6.40304 12.6796C6.43475 12.5211 6.46646 12.3943 6.56158 12.2674C6.62499 12.1406 6.72011 12.0138 6.85011 11.9187C6.97694 11.8235 7.13865 11.6967 7.29718 11.6016C7.4906 11.5065 7.64913 11.4113 7.77596 11.3479C7.90279 11.2845 8.00108 11.2211 8.0962 11.1577C8.15962 11.0943 8.22303 11.0626 8.25474 10.9991C8.28645 10.9674 8.31815 10.904 8.31815 10.8406C8.31815 10.7138 8.28645 10.6187 8.19133 10.5552C8.0962 10.4918 7.99791 10.4601 7.83938 10.4601C7.68084 10.4601 7.51913 10.4918 7.39231 10.587C7.26548 10.6821 7.13548 10.7772 7.00865 10.9357L6.36816 10.2065C6.43158 10.1431 6.5267 10.0479 6.62499 9.98452C6.75182 9.92111 6.88182 9.85769 7.00865 9.79428C7.13548 9.73086 7.29718 9.69916 7.48743 9.66745C7.64596 9.63574 7.83938 9.63574 8.03279 9.63574C8.47986 9.63574 8.83181 9.73086 9.08864 9.9211C9.34547 10.1113 9.44059 10.365 9.44059 10.7138C9.44059 10.8406 9.40888 10.9674 9.37717 11.0943C9.34547 11.1894 9.28205 11.2845 9.21864 11.3796C9.15522 11.4748 9.0601 11.5382 8.99352 11.6016C8.89839 11.665 8.8001 11.7284 8.73669 11.7918C8.67327 11.8235 8.60986 11.887 8.51157 11.9187C8.41645 11.9821 8.35303 12.0138 8.25474 12.0772C8.15645 12.1406 8.0962 12.1723 8.02962 12.2357C7.9662 12.2991 7.90279 12.3309 7.87108 12.3626L9.504 12.3309H9.51034Z" fill="#FFA500"/>
  <path d="M7.77885 8.30407C7.84226 8.36749 7.90568 8.49432 7.90568 8.58944C7.90568 8.68457 7.87397 8.77969 7.77885 8.87481C7.62031 9.03334 7.36349 9.03334 7.20178 8.87481C7.13836 8.81139 7.07495 8.68457 7.07495 8.58944C7.07495 8.49432 7.10666 8.39919 7.20178 8.30407C7.26519 8.24066 7.39519 8.17725 7.49031 8.17725C7.58544 8.20895 7.68373 8.24066 7.77885 8.30407Z" fill="#FFA500"/>
  <path d="M4.57551 12.6796C4.63893 12.743 4.70234 12.8698 4.70234 12.9649C4.70234 13.06 4.67063 13.1552 4.57551 13.2503C4.41698 13.4088 4.16015 13.4088 3.99844 13.2503C3.93503 13.1869 3.87161 13.06 3.87161 12.9649C3.87161 12.8698 3.90332 12.7747 3.99844 12.6796C4.06186 12.6161 4.19185 12.5527 4.28698 12.5527C4.3821 12.5527 4.48039 12.5844 4.57551 12.6796Z" fill="#FFA500"/>
  <path d="M16.2975 3.86505C16.0723 3.86505 15.8821 3.67481 15.8821 3.45286C15.8821 3.23091 16.0755 3.04067 16.2975 3.04067C16.7445 3.04067 17.0965 2.69189 17.0965 2.24799C17.0965 1.80409 16.7445 1.45532 16.2975 1.45532C15.8504 1.45532 15.4985 1.80409 15.4985 2.24799C15.4985 2.46994 15.305 2.66018 15.0831 2.66018C14.8611 2.66018 14.6994 2.50164 14.6994 2.27969C14.6994 1.39189 15.4033 0.694336 16.3006 0.694336C17.198 0.694336 17.9019 1.39189 17.9019 2.27969C17.9019 3.16749 17.198 3.86505 16.3006 3.86505H16.2975Z" fill="#FFA500"/>
  <path d="M13.0953 3.86505C12.8702 3.86505 12.6799 3.67481 12.6799 3.45286C12.6799 3.23091 12.8733 3.04067 13.0953 3.04067C13.5424 3.04067 13.8943 2.69189 13.8943 2.24799C13.8943 1.80409 13.5424 1.45532 13.0953 1.45532C12.6482 1.45532 12.2963 1.80409 12.2963 2.24799C12.2963 2.46994 12.1029 2.66018 11.8809 2.66018C11.659 2.66018 11.4973 2.50164 11.4973 2.27969C11.4973 1.39189 12.2012 0.694336 13.0985 0.694336C13.9958 0.694336 14.6997 1.39189 14.6997 2.27969C14.6997 3.16749 13.9958 3.86505 13.0985 3.86505H13.0953Z" fill="#FFA500"/>
  <path d="M9.89437 3.86501C9.66924 3.86501 9.479 3.67477 9.479 3.45282C9.479 3.23087 9.67242 3.04063 9.89437 3.04063C10.3414 3.04063 10.6934 2.69186 10.6934 2.24796C10.6934 1.80406 10.3414 1.45528 9.89437 1.45528C9.44729 1.45528 9.09534 1.80406 9.09534 2.24796C9.09534 2.46991 8.90193 2.66014 8.67998 2.66014C8.45803 2.66014 8.26462 2.46991 8.26462 2.24796C8.26462 1.36016 8.96852 0.662598 9.86583 0.662598C10.7631 0.662598 11.467 1.36016 11.467 2.24796C11.467 3.13576 10.7948 3.86501 9.89754 3.86501H9.89437Z" fill="#FFA500"/>
  <path d="M6.68987 3.86501C6.46475 3.86501 6.2745 3.67477 6.2745 3.45282C6.2745 3.23087 6.46792 3.04063 6.68987 3.04063C7.13694 3.04063 7.48889 2.69186 7.48889 2.24796C7.48889 1.80406 7.13694 1.45528 6.68987 1.45528C6.2428 1.45528 5.89085 1.80406 5.89085 2.24796C5.89085 2.46991 5.69743 2.66014 5.47548 2.66014C5.25353 2.66014 5.06012 2.46991 5.06012 2.24796C5.06012 1.36016 5.76402 0.662598 6.66133 0.662598C7.55864 0.662598 8.26254 1.36016 8.26254 2.24796C8.26254 3.13576 7.59035 3.86501 6.69304 3.86501H6.68987Z" fill="#FFA500"/>
  <path d="M3.48885 3.86501C3.26373 3.86501 3.07348 3.67477 3.07348 3.45282C3.07348 3.23087 3.2669 3.04063 3.48885 3.04063C3.93592 3.04063 4.28787 2.69186 4.28787 2.24796C4.28787 1.80406 3.93592 1.45528 3.48885 1.45528C3.04178 1.45528 2.68983 1.80406 2.68983 2.24796C2.68983 2.46991 2.49641 2.66014 2.27446 2.66014C2.05251 2.66014 1.8591 2.46991 1.8591 2.24796C1.8591 1.36016 2.563 0.662598 3.46031 0.662598C4.35762 0.662598 5.06152 1.36016 5.06152 2.24796C5.06152 3.13576 4.38933 3.86501 3.49202 3.86501H3.48885Z" fill="#FFA500"/>
  <path d="M18.6981 5.45036H1.0848C0.859676 5.45036 0.669434 5.26012 0.669434 5.03817C0.669434 4.81622 0.862847 4.62598 1.0848 4.62598H18.6981C18.9232 4.62598 19.1135 4.81622 19.1135 5.03817C19.1135 5.26012 18.9201 5.45036 18.6981 5.45036Z" fill="#23262F" fill-opacity="0.8"/>
  <path d="M18.6981 7.00408H1.0848C0.859676 7.00408 0.669434 6.81383 0.669434 6.59188C0.669434 6.36993 0.862847 6.17969 1.0848 6.17969H18.6981C18.9232 6.17969 19.1135 6.36993 19.1135 6.59188C19.1135 6.81383 18.9201 7.00408 18.6981 7.00408Z" fill="#23262F" fill-opacity="0.8"/>
  <path d="M17.9308 17.3088H1.85528C1.2148 17.3088 0.669434 16.7698 0.669434 16.1357V3.0406C0.669434 2.40646 1.2148 1.86743 1.85528 1.86743H17.8991C18.5396 1.86743 19.085 2.40646 19.085 3.0406V16.1357C19.1167 16.8015 18.5713 17.3088 17.9308 17.3088ZM1.85528 2.66011C1.63016 2.66011 1.47163 2.81865 1.47163 3.0406V16.1357C1.47163 16.3576 1.63016 16.5161 1.85528 16.5161H17.8991C18.1242 16.5161 18.2828 16.3576 18.2828 16.1357V3.0406C18.2828 2.81865 18.1242 2.66011 17.8991 2.66011H1.85528Z" fill="#23262F" fill-opacity="0.8"/>
</svg>