<svg width="24" height="16" viewBox="0 0 24 16" fill="none" xmlns="http://www.w3.org/2000/svg">
<g id="Group 142">
<path id="Vector" d="M20.7414 10.9929V14.3606C20.7414 14.7212 20.4601 15.0025 20.0996 15.0025H18.3761C18.0155 15.0025 17.7342 14.7212 17.7342 14.3606V12.9977H18.5346C19.5369 12.9977 20.3769 12.3162 20.6186 11.3535L20.7374 10.9929H20.7414Z" fill="white"/>
<path id="Vector_2" d="M5.24063 12.9977H6.04097V14.3606C6.04097 14.7212 5.75966 15.0025 5.39912 15.0025H3.67563C3.31509 15.0025 3.03378 14.7212 3.03378 14.3606V10.9929H3.0734L3.15264 11.3535C3.39433 12.2766 4.23428 12.9977 5.23667 12.9977H5.24063Z" fill="white"/>
<path id="Vector_3" d="M19.9961 6.75591C19.9178 6.71709 19.8395 6.67827 19.7181 6.63945C16.9462 5.42056 8.70862 5.30411 5.02442 6.40266C4.55068 6.56181 4.35101 6.63945 4.11218 6.75591C3.12164 7.10915 2.48738 8.13007 2.76535 9.1898L3.19994 11.0337L3.27824 11.3869C3.51707 12.3302 4.34709 12.9979 5.33764 12.9979H18.802C19.7925 12.9979 20.6226 12.3302 20.8614 11.3869L20.9397 11.0337L21.3743 9.1898C21.5739 8.13007 20.9397 7.07033 19.9883 6.75591H19.9961Z" fill="#FFA500"/>
<path id="Vector_4" d="M15.4229 0.969238H15.5406C16.9295 0.969238 18.1222 1.9344 18.3968 3.30071L19.0717 6.31534C18.7146 6.19618 18.4753 6.11278 17.9221 6.03334C14.5479 5.31046 8.11741 5.27074 4.70401 6.31534L5.37884 3.30071C5.69664 1.9344 6.88544 0.969238 8.23511 0.969238H15.4189H15.4229Z" fill="white"/>
<path id="Vector_5" d="M18.6875 6.60063L18.0121 3.57799C17.7726 2.45098 16.7793 1.64255 15.6289 1.64255H8.40051C7.25009 1.64255 6.25674 2.447 6.01723 3.57799L5.3419 6.60063C5.26338 6.88338 5.02387 7.04267 4.7451 6.96303C4.46634 6.88338 4.30928 6.64045 4.38781 6.3577L5.06313 3.33507C5.42043 1.7222 6.81035 0.63501 8.43977 0.63501H15.6681C17.2975 0.63501 18.6482 1.76203 19.0448 3.33507L19.7201 6.3577C19.7986 6.64045 19.6023 6.88338 19.3628 6.96303C19.0448 7.04267 18.766 6.88338 18.6875 6.60063Z" fill="#23262F" fill-opacity="0.8"/>
<path id="Vector_6" d="M18.5776 13.3318H5.14128C3.91447 13.3318 2.88692 12.5067 2.61342 11.3236L2.1016 9.11699C1.78513 7.81713 2.53528 6.51727 3.80117 6.08528C3.87931 6.04636 3.95745 6.04636 4.0395 6.00745C5.30538 5.45481 7.4777 5.18238 8.86079 5.10066C10.5604 4.94499 13.0491 4.94499 14.3932 5.06174C15.8935 5.13958 18.3862 5.41589 19.7693 6.00745C19.8474 6.04636 19.9255 6.08528 20.0076 6.08528C21.2735 6.51727 21.9846 7.81713 21.6681 9.11699L21.1524 11.3236C20.8359 12.5029 19.8083 13.3318 18.5815 13.3318H18.5776ZM4.11373 7.03099C3.32451 7.3073 2.88692 8.09345 3.08618 8.9224L3.60191 11.129C3.75819 11.8763 4.4302 12.39 5.18426 12.39H18.6206C19.3707 12.39 20.0037 11.8802 20.2029 11.129L20.7187 8.9224C20.9179 8.13626 20.4413 7.3073 19.6911 7.03099C19.613 6.99207 19.4919 6.95315 19.3747 6.91423C16.964 5.85177 9.73206 5.61437 5.85627 6.48224C5.85627 6.48224 5.57887 6.56008 5.46166 6.56008C5.19859 6.63792 5.041 6.67683 4.98891 6.67683C4.39504 6.87532 4.43411 6.91423 4.11764 7.03099H4.11373Z" fill="#23262F" fill-opacity="0.8"/>
<path id="Vector_7" d="M5.70414 7.98584C6.43625 7.98584 7.04067 8.59026 7.04067 9.32237C7.04067 10.0545 6.43625 10.6589 5.70414 10.6589C4.97203 10.6589 4.36761 10.0545 4.36761 9.32237C4.36761 8.59026 4.92947 7.98584 5.70414 7.98584Z" fill="white"/>
<path id="Vector_8" d="M18.0686 7.98584C18.8049 7.98584 19.4051 8.58174 19.4051 9.32237C19.4051 10.063 18.8092 10.6589 18.0686 10.6589C17.328 10.6589 16.7321 10.063 16.7321 9.32237C16.7321 8.58174 17.328 7.98584 18.0686 7.98584Z" fill="white"/>
<path id="Vector_9" d="M4.36819 5.56659V6.0611C4.36819 6.37741 4.14027 6.64917 3.87873 6.64917H2.51872C2.25344 6.64917 2.02927 6.37741 2.02927 6.0611V5.56659C2.02927 5.25028 2.25718 4.97852 2.51872 4.97852H3.87873C4.14401 4.97852 4.36819 5.20572 4.36819 5.56659Z" fill="white"/>
<path id="Vector_10" d="M21.7434 5.56659V6.0611C21.7434 6.37741 21.5158 6.64917 21.2547 6.64917H19.8969C19.632 6.64917 19.4044 6.37741 19.4044 6.0611V5.56659C19.4044 5.25028 19.632 4.97852 19.8969 4.97852H21.2547C21.5195 4.97852 21.7434 5.20572 21.7434 5.56659Z" fill="white"/>
<path id="Vector_11" d="M17.0682 10.9929H13.3928V11.6612H17.0682V10.9929Z" fill="#23262F" fill-opacity="0.8"/>
<path id="Vector_12" d="M10.3825 10.9929H7.04117V11.6612H10.3825V10.9929Z" fill="#23262F" fill-opacity="0.8"/>
<path id="Vector_13" d="M5.20829 15.3365C4.93498 15.3365 4.70401 15.101 4.70401 14.827C4.70401 14.5529 4.93883 14.3213 5.20829 14.3213C5.28528 14.3213 5.36226 14.2441 5.36226 14.163V12.835C5.36226 12.561 5.59708 12.3293 5.86654 12.3293C6.136 12.3293 6.37467 12.5648 6.37467 12.835V14.163C6.33617 14.827 5.82805 15.3365 5.20829 15.3365Z" fill="#23262F" fill-opacity="0.8"/>
<path id="Vector_14" d="M3.49239 15.3367C2.86878 15.3367 2.3645 14.8178 2.3645 14.1849V10.8436C2.3645 10.5645 2.59932 10.3247 2.87263 10.3247H2.91112C3.18443 10.3247 3.4154 10.5645 3.4154 10.8436C3.4154 10.9222 3.4154 10.9615 3.3769 11.0441V14.1849C3.3769 14.2635 3.45389 14.3421 3.53088 14.3421C3.80419 14.3421 4.03516 14.5819 4.03516 14.861C3.99666 15.1008 3.76185 15.3367 3.48854 15.3367H3.49239Z" fill="#23262F" fill-opacity="0.8"/>
<path id="Vector_15" d="M20.2439 15.3367C19.97 15.3367 19.7385 15.0989 19.7385 14.8222C19.7385 14.5455 19.9739 14.3117 20.2439 14.3117C20.3211 14.3117 20.3983 14.2337 20.3983 14.1519V11.0379C20.3597 10.9989 20.3597 10.921 20.3597 10.8392C20.3597 10.5624 20.595 10.3247 20.8651 10.3247H20.9037C21.1777 10.3247 21.4092 10.5624 21.4092 10.8392V14.1519C21.3706 14.8222 20.8613 15.3367 20.2401 15.3367H20.2439Z" fill="#23262F" fill-opacity="0.8"/>
<path id="Vector_16" d="M18.5269 15.3365C17.9033 15.3365 17.399 14.8203 17.399 14.1907V12.8455C17.399 12.5679 17.6338 12.3293 17.9071 12.3293C18.1804 12.3293 18.4114 12.5679 18.4114 12.8455V14.1907C18.4114 14.269 18.4884 14.3472 18.5654 14.3472C18.8387 14.3472 19.0696 14.5857 19.0696 14.8634C19.0311 15.1019 18.7963 15.3365 18.523 15.3365H18.5269Z" fill="#23262F" fill-opacity="0.8"/>
<path id="Vector_17" d="M5.70307 10.9929C4.79077 10.9929 4.03241 10.2346 4.03241 9.32227C4.03241 8.40998 4.79077 7.65161 5.70307 7.65161C6.61536 7.65161 7.37372 8.40998 7.37372 9.32227C7.37372 10.2346 6.61536 10.9929 5.70307 10.9929ZM5.70307 8.60144C5.32388 8.60144 4.98224 8.90554 4.98224 9.32227C4.98224 9.73899 5.28634 10.0431 5.70307 10.0431C6.08225 10.0431 6.42389 9.73899 6.42389 9.32227C6.42389 8.90554 6.08225 8.60144 5.70307 8.60144Z" fill="#23262F" fill-opacity="0.8"/>
<path id="Vector_18" d="M18.0687 10.9929C17.1564 10.9929 16.398 10.2346 16.398 9.32227C16.398 8.40998 17.1564 7.65161 18.0687 7.65161C18.981 7.65161 19.7393 8.40998 19.7393 9.32227C19.7393 10.2346 18.981 10.9929 18.0687 10.9929ZM18.0687 8.60144C17.6895 8.60144 17.3478 8.90554 17.3478 9.32227C17.3478 9.73899 17.6519 10.0431 18.0687 10.0431C18.4479 10.0431 18.7895 9.73899 18.7895 9.32227C18.7895 8.90554 18.4854 8.60144 18.0687 8.60144Z" fill="#23262F" fill-opacity="0.8"/>
<path id="Vector_19" d="M16.8783 9.65645H6.89419C6.6139 9.65645 6.37308 9.42395 6.37308 9.15716C6.37308 8.89036 6.6139 8.65405 6.89419 8.65405H16.8783C17.1586 8.65405 17.3994 8.88655 17.3994 9.15716C17.3994 9.42776 17.1586 9.65645 16.8783 9.65645Z" fill="#23262F" fill-opacity="0.8"/>
<path id="Vector_20" d="M14.545 7.98579H9.5626C9.28295 7.98579 9.04663 7.7533 9.04663 7.4865C9.04663 7.2197 9.28689 6.9834 9.5626 6.9834H14.545C14.8247 6.9834 15.061 7.21589 15.061 7.4865C15.061 7.75711 14.7814 7.98579 14.545 7.98579Z" fill="#23262F" fill-opacity="0.8"/>
<path id="Vector_21" d="M21.3268 6.98345H19.8236C19.2372 6.98345 18.7375 6.57588 18.7375 6.01778V5.61021C18.7375 5.08882 19.1959 4.64453 19.8236 4.64453H21.3268C21.9133 4.64453 22.413 5.0521 22.413 5.61021V6.01778C22.413 6.53917 21.9133 6.98345 21.3268 6.98345ZM19.8236 5.57349C19.7961 5.57349 19.7961 5.57349 19.8236 5.57349L19.7823 6.01778C19.7823 6.01778 19.7823 6.05449 19.8236 6.05449H21.3268C21.3268 6.05449 21.3681 6.05449 21.3681 6.01778V5.61021C21.3681 5.61021 21.3681 5.57349 21.3268 5.57349H19.8236Z" fill="#23262F" fill-opacity="0.8"/>
<path id="Vector_22" d="M3.9517 6.98345H2.44848C1.86206 6.98345 1.36237 6.57588 1.36237 6.01778V5.61021C1.36237 5.08882 1.82076 4.64453 2.44848 4.64453H3.9517C4.53812 4.64453 5.03781 5.0521 5.03781 5.61021V6.01778C5.03781 6.53917 4.57941 6.98345 3.9517 6.98345ZM2.44848 5.57349L2.40718 6.01778C2.40718 6.01778 2.40718 6.05449 2.44848 6.05449H3.9517C3.9517 6.05449 3.99299 6.05449 3.99299 6.01778V5.61021C3.99299 5.61021 3.99299 5.57349 3.9517 5.57349H2.44848Z" fill="#23262F" fill-opacity="0.8"/>
<path id="Vector_23" d="M12.5441 3.8336C12.3348 3.64331 12.3348 3.34481 12.5441 3.15452L15.1586 0.777729C15.3679 0.587437 15.7004 0.587437 15.9056 0.777729C16.1149 0.968022 16.1149 1.26652 15.9056 1.45681L13.2911 3.8336C13.0818 4.0239 12.7493 4.0239 12.5441 3.8336Z" fill="#23262F" fill-opacity="0.8"/>
<path id="Vector_24" d="M10.188 4.48535C10.0024 4.27317 10.0024 3.94034 10.188 3.72816L11.5859 2.13057C11.7716 1.91839 12.0664 1.91839 12.2484 2.13057C12.4341 2.34275 12.4341 2.67974 12.2484 2.88776L10.8506 4.48535C10.6285 4.69753 10.37 4.69753 10.188 4.48535Z" fill="#23262F" fill-opacity="0.8"/>
<path id="Vector_25" d="M22.8918 15.3366H0.877353C0.596435 15.3366 0.359039 15.1041 0.359039 14.8335C0.359039 14.5629 0.600391 14.3342 0.877353 14.3342H22.8918C23.1728 14.3342 23.4141 14.5667 23.4141 14.8335C23.4141 15.1003 23.1728 15.3366 22.8918 15.3366Z" fill="#23262F" fill-opacity="0.8"/>
</g>
</svg>
