<svg xmlns="http://www.w3.org/2000/svg" width="20" height="20" viewBox="0 0 20 20" fill="none">
  <path d="M6.66699 14.1665C4.30997 14.1665 3.13146 14.1665 2.39923 13.4343C1.92481 12.9599 1.75777 12.2981 1.69895 11.2498H18.3017C18.2429 12.2981 18.0758 12.9599 17.6014 13.4343C16.8692 14.1665 15.6907 14.1665 13.3337 14.1665H10.6253V17.4998H13.3337C13.6788 17.4998 13.9587 17.7797 13.9587 18.1248C13.9587 18.47 13.6788 18.7498 13.3337 18.7498H6.66699C6.32181 18.7498 6.04199 18.47 6.04199 18.1248C6.04199 17.7797 6.32181 17.4998 6.66699 17.4998H9.37532V14.1665H6.66699Z" fill="#FFA500"/>
  <path d="M8.33366 1.6665H11.667C14.8097 1.6665 16.381 1.6665 17.3573 2.64281C18.3337 3.61913 18.3337 5.19047 18.3337 8.33317V9.1665C18.3337 9.62619 18.3337 10.041 18.3282 10.4165H1.67242C1.66699 10.041 1.66699 9.62619 1.66699 9.1665V8.33317C1.66699 5.19047 1.66699 3.61913 2.6433 2.64281C3.61961 1.6665 5.19096 1.6665 8.33366 1.6665Z" fill="#FFA500"/>
</svg>