<svg xmlns="http://www.w3.org/2000/svg" width="21" height="14" viewBox="0 0 21 14" fill="none">
  <path d="M3.0877 3.93728V7.1106H0.790028V1.85672C0.790028 1.23798 1.30022 0.727783 1.92258 0.727783C2.25185 0.727783 2.50514 0.872518 2.72586 1.05706C2.94296 1.27416 3.05513 1.53106 3.05513 1.86034V3.9409H3.09131L3.0877 3.93728Z" fill="white"/>
  <path d="M5.82166 5.65242V7.11062H3.08617V3.90112H4.10655C5.01838 3.93731 5.82166 4.7044 5.82166 5.65242Z" fill="#FFA500"/>
  <path d="M17.6785 7.11079H8.33951V5.06641H15.6378C16.7667 5.06641 17.6822 5.97824 17.6822 7.11079H17.6785Z" fill="#FFA500"/>
  <path d="M18.1565 11.8906H15.6382V13.2765H18.1565V11.8906Z" fill="white"/>
  <path d="M5.12868 11.8906H2.61029V13.2765H5.12868V11.8906Z" fill="white"/>
  <path d="M19.9421 8.71729H0.790028V9.84984H19.9421V8.71729Z" fill="#FFA500"/>
  <path d="M19.9421 9.84619V11.8906H0.790028V9.84619H19.9421Z" fill="white"/>
  <path d="M19.9421 8.1346V8.71715H0.790028V7.1106H18.9217C19.5043 7.1106 19.9421 7.5846 19.9421 8.13098V8.1346Z" fill="white"/>
  <path d="M2.61161 12.1474H0.787949C0.679398 12.1474 0.570847 12.0389 0.570847 11.9303V7.11428C0.570847 7.00572 0.679398 6.89355 0.787949 6.89355C0.896501 6.89355 1.00867 7.00211 1.00867 7.11428V11.6734H2.61523C2.72378 11.6734 2.83595 11.782 2.83595 11.8905C2.87213 12.0353 2.76358 12.1474 2.61523 12.1474H2.61161Z" fill="#23262F" fill-opacity="0.8"/>
  <path d="M15.6372 12.1475H5.1294C5.02084 12.1475 4.91229 12.039 4.91229 11.9304C4.91229 11.8219 5.02084 11.7097 5.1294 11.7097H15.6372C15.7457 11.7097 15.8543 11.8183 15.8543 11.9304C15.8543 12.0426 15.7457 12.1475 15.6372 12.1475Z" fill="#23262F" fill-opacity="0.8"/>
  <path d="M19.9393 12.1474H18.1156C18.0071 12.1474 17.8985 12.0388 17.8985 11.9303C17.8985 11.8217 18.0071 11.7096 18.1156 11.7096H19.7222V8.17079C19.7222 7.73297 19.3567 7.36751 18.9189 7.36751H17.6416C17.5331 7.36751 17.4209 7.25896 17.4209 7.14679C17.4209 7.03462 17.5295 6.92969 17.6416 6.92969H18.9189C19.6137 6.92969 20.16 7.47606 20.16 8.17079V11.9267C20.1962 12.0352 20.0877 12.1438 19.9393 12.1438V12.1474Z" fill="#23262F" fill-opacity="0.8"/>
  <path d="M8.33943 7.33138H5.82104C5.71249 7.33138 5.60032 7.22283 5.60032 7.11428C5.60032 7.00572 5.70887 6.89355 5.82104 6.89355H8.33943C8.44798 6.89355 8.56015 7.00211 8.56015 7.11428C8.56015 7.22645 8.4516 7.33138 8.33943 7.33138Z" fill="#23262F" fill-opacity="0.8"/>
  <path d="M3.08562 7.33143H0.787949C0.679398 7.33143 0.570847 7.22288 0.570847 7.11433V1.86045C0.570847 1.09335 1.18959 0.474609 1.95669 0.474609C2.32214 0.474609 2.65141 0.619343 2.94088 0.876248C3.19779 1.13315 3.34252 1.49499 3.34252 1.86045V3.90483C3.34252 4.01338 3.23397 4.12193 3.12542 4.12193C3.01687 4.12193 2.9047 4.01338 2.9047 3.90483V1.86045C2.9047 1.60354 2.79615 1.38644 2.6478 1.20552C2.46688 1.0246 2.24616 0.948616 1.98925 0.948616C1.47906 0.948616 1.07742 1.35026 1.07742 1.86045V6.89361H3.1218C3.23035 6.89361 3.33891 7.00216 3.33891 7.11433C3.33891 7.2265 3.19417 7.33143 3.082 7.33143H3.08562Z" fill="#23262F" fill-opacity="0.8"/>
  <path d="M19.94 8.93441H0.787949C0.679398 8.93441 0.570847 8.82585 0.570847 8.71368C0.570847 8.60151 0.679398 8.49658 0.787949 8.49658H19.94C20.0486 8.49658 20.1571 8.60513 20.1571 8.71368C20.1933 8.82224 20.0848 8.93441 19.94 8.93441Z" fill="#23262F" fill-opacity="0.8"/>
  <path d="M19.94 10.067H0.787949C0.679398 10.067 0.570847 9.95842 0.570847 9.84626C0.570847 9.73409 0.679398 9.62915 0.787949 9.62915H19.94C20.0486 9.62915 20.1571 9.7377 20.1571 9.84626C20.1933 9.95481 20.0848 10.067 19.94 10.067Z" fill="#23262F" fill-opacity="0.8"/>
  <path d="M5.82192 7.33141H3.08643C2.97788 7.33141 2.86933 7.22286 2.86933 7.1143V3.9048C2.86933 3.79625 2.97788 3.68408 3.08643 3.68408H4.10681C5.19956 3.68408 6.07521 4.55973 6.07521 5.65248V7.11069C6.03903 7.21924 5.93047 7.32779 5.82192 7.32779V7.33141ZM3.30353 6.89358H5.6012V5.65248C5.6012 4.81302 4.91009 4.15809 4.10681 4.15809H3.30353V6.89358Z" fill="#23262F" fill-opacity="0.8"/>
  <path d="M5.1291 13.497C5.02055 13.497 4.912 13.3885 4.912 13.2799V12.1474H2.86762V13.2799C2.86762 13.3885 2.75907 13.497 2.65052 13.497C2.54196 13.497 2.42979 13.3885 2.42979 13.2799V11.8941C2.42979 11.7856 2.53835 11.677 2.65052 11.677H5.13272C5.24127 11.677 5.34983 11.7856 5.34983 11.8941V13.2799C5.34983 13.3885 5.24127 13.497 5.13272 13.497H5.1291Z" fill="#23262F" fill-opacity="0.8"/>
  <path d="M18.1148 13.497C18.0062 13.497 17.8977 13.3885 17.8977 13.2799V12.1474H15.8533V13.2799C15.8533 13.3885 15.7447 13.497 15.6362 13.497C15.5276 13.497 15.4155 13.3885 15.4155 13.2799V11.8941C15.4155 11.7856 15.524 11.677 15.6362 11.677H18.1546C18.2631 11.677 18.3753 11.7856 18.3753 11.8941V13.2799C18.3753 13.3885 18.2667 13.497 18.1184 13.497H18.1148Z" fill="#23262F" fill-opacity="0.8"/>
  <path d="M17.6776 7.33157H8.3386C8.23005 7.33157 8.1215 7.22302 8.1215 7.11447V5.07009C8.1215 4.96153 8.23005 4.84937 8.3386 4.84937H15.6369C16.878 4.84937 17.9345 5.86975 17.9345 7.14703C17.8984 7.2194 17.7898 7.32795 17.6776 7.32795V7.33157ZM8.5557 6.89375H17.4207C17.3122 5.98192 16.5451 5.28719 15.5971 5.28719H8.5557V6.89375Z" fill="#23262F" fill-opacity="0.8"/>
  <path d="M18.8088 13.4972H1.6975C1.58894 13.4972 1.48039 13.3886 1.48039 13.2801C1.48039 13.1715 1.58894 13.063 1.6975 13.063H18.8088C18.9173 13.063 19.0259 13.1715 19.0259 13.2801C19.0259 13.3886 18.9173 13.4972 18.8088 13.4972Z" fill="#23262F" fill-opacity="0.8"/>
</svg>