<svg width="8" height="8" viewBox="0 0 8 8" fill="none" xmlns="http://www.w3.org/2000/svg">
<mask id="path-1-inside-1_84_40" fill="white">
<path d="M3.1 2.97143L3.9 0L5 2.97143L8 3.65714L5 4.8L3.9 8L3.1 4.8L0 3.65714L3.1 2.97143Z"/>
</mask>
<path d="M3.1 2.97143L4.17989 7.85342L7.13994 7.19866L7.92808 4.2713L3.1 2.97143ZM5 2.97143L0.310984 4.70727L1.24976 7.24318L3.88588 7.84572L5 2.97143ZM5 4.8L3.22002 0.127561L1.03253 0.960892L0.271567 3.1746L5 4.8ZM3.1 4.8L7.95071 3.58732L7.30963 1.02298L4.82953 0.108654L3.1 4.8ZM3.9 8L-0.950712 9.21268L3.14235 25.5849L8.62843 9.6254L3.9 8ZM3.9 0L8.58902 -1.73584L3.14707 -16.4361L-0.928079 -1.29987L3.9 0ZM8 3.65714L9.77998 8.32958L25.1929 2.458L9.11412 -1.21715L8 3.65714ZM0 3.65714L-1.07989 -1.22485L-17.7157 2.45497L-1.72953 8.34849L0 3.65714ZM0.271567 3.1746L-0.828433 6.3746L8.62843 9.6254L9.72843 6.4254L0.271567 3.1746ZM8.75071 6.78732L7.95071 3.58732L-1.75071 6.01268L-0.950712 9.21268L8.75071 6.78732ZM7.92808 4.2713L8.72808 1.29987L-0.928079 -1.29987L-1.72808 1.67156L7.92808 4.2713ZM-0.789016 1.73584L0.310984 4.70727L9.68902 1.23559L8.58902 -1.73584L-0.789016 1.73584ZM3.88588 7.84572L6.88588 8.53144L9.11412 -1.21715L6.11412 -1.90286L3.88588 7.84572ZM6.22002 -1.0153L3.22002 0.127561L6.77998 9.47244L9.77998 8.32958L6.22002 -1.0153ZM4.82953 0.108654L1.72953 -1.0342L-1.72953 8.34849L1.37047 9.49135L4.82953 0.108654ZM1.07989 8.53913L4.17989 7.85342L2.02011 -1.91056L-1.07989 -1.22485L1.07989 8.53913Z" fill="white" mask="url(#path-1-inside-1_84_40)"/>
</svg>
