<svg width="22" height="22" viewBox="0 0 22 22" fill="none" xmlns="http://www.w3.org/2000/svg">
<g id="Bold / Arrows / Transfer Vertical">
<g id="Union">
<path d="M3.66702 12.604C3.38351 12.604 3.12907 12.7781 3.02629 13.0423C2.92351 13.3065 2.99347 13.6067 3.20246 13.7983L8.70246 18.84C8.90344 19.0242 9.19429 19.0723 9.44385 18.9625C9.69341 18.8527 9.85452 18.6058 9.85452 18.3332L9.85452 3.66652C9.85452 3.28682 9.54671 2.97902 9.16702 2.97902C8.78732 2.97902 8.47952 3.28682 8.47952 3.66652V12.604H3.66702Z" fill="#23262F"/>
<path d="M18.3337 9.39568L13.5212 9.39568V18.3332C13.5212 18.7129 13.2134 19.0207 12.8337 19.0207C12.454 19.0207 12.1462 18.7129 12.1462 18.3332L12.1462 3.66652C12.1462 3.39388 12.3073 3.147 12.5569 3.03722C12.8064 2.92743 13.0973 2.97549 13.2982 3.15972L18.7982 8.20139C19.0072 8.39297 19.0772 8.69319 18.9744 8.95742C18.8716 9.22165 18.6172 9.39568 18.3337 9.39568Z" fill="#23262F"/>
</g>
</g>
</svg>
